<svg width="471" height="343" viewBox="0 0 471 343" fill="none" xmlns="http://www.w3.org/2000/svg">
<g clip-path="url(#clip0_2_2)">
<rect width="471" height="343" fill="#2F3136"/>
<g filter="url(#filter0_d_2_2)">
<path d="M5.888 29.32C4.18133 29.32 2.89067 28.84 2.016 27.88C1.14133 26.8987 0.704 25.5013 0.704 23.688V22.408H4.032V23.944C4.032 25.3947 4.64 26.12 5.856 26.12C6.45333 26.12 6.90133 25.9493 7.2 25.608C7.52 25.2453 7.68 24.6693 7.68 23.88C7.68 22.9413 7.46667 22.12 7.04 21.416C6.61333 20.6907 5.824 19.8267 4.672 18.824C3.22133 17.544 2.208 16.392 1.632 15.368C1.056 14.3227 0.768 13.1493 0.768 11.848C0.768 10.0773 1.216 8.712 2.112 7.752C3.008 6.77067 4.30933 6.28 6.016 6.28C7.70133 6.28 8.97067 6.77067 9.824 7.752C10.6987 8.712 11.136 10.0987 11.136 11.912V12.84H7.808V11.688C7.808 10.92 7.65867 10.3653 7.36 10.024C7.06133 9.66133 6.624 9.48 6.048 9.48C4.87467 9.48 4.288 10.1947 4.288 11.624C4.288 12.4347 4.50133 13.192 4.928 13.896C5.376 14.6 6.176 15.4533 7.328 16.456C8.8 17.736 9.81333 18.8987 10.368 19.944C10.9227 20.9893 11.2 22.216 11.2 23.624C11.2 25.4587 10.7413 26.8667 9.824 27.848C8.928 28.8293 7.616 29.32 5.888 29.32ZM18.3063 29.32C16.5783 29.32 15.2556 28.8293 14.3383 27.848C13.4209 26.8667 12.9622 25.48 12.9622 23.688V11.912C12.9622 10.12 13.4209 8.73333 14.3383 7.752C15.2556 6.77067 16.5783 6.28 18.3063 6.28C20.0343 6.28 21.3569 6.77067 22.2743 7.752C23.1916 8.73333 23.6503 10.12 23.6503 11.912V23.688C23.6503 25.48 23.1916 26.8667 22.2743 27.848C21.3569 28.8293 20.0343 29.32 18.3063 29.32ZM18.3063 26.12C19.5223 26.12 20.1302 25.384 20.1302 23.912V11.688C20.1302 10.216 19.5223 9.48 18.3063 9.48C17.0903 9.48 16.4823 10.216 16.4823 11.688V23.912C16.4823 25.384 17.0903 26.12 18.3063 26.12ZM26.0308 6.6H30.4468L33.8708 20.008H33.9348V6.6H37.0708V29H33.4548L29.2308 12.648H29.1668V29H26.0308V6.6ZM39.687 6.6H44.103L47.527 20.008H47.591V6.6H50.727V29H47.111L42.887 12.648H42.823V29H39.687V6.6ZM53.3433 6.6H56.8633V29H53.3433V6.6ZM64.4595 29.32C62.7742 29.32 61.4835 28.84 60.5875 27.88C59.7128 26.92 59.2755 25.5653 59.2755 23.816V11.784C59.2755 10.0347 59.7128 8.68 60.5875 7.72C61.4835 6.76 62.7742 6.28 64.4595 6.28C66.1448 6.28 67.4248 6.76 68.2995 7.72C69.1955 8.68 69.6435 10.0347 69.6435 11.784V14.152H66.3155V11.56C66.3155 10.1733 65.7288 9.48 64.5555 9.48C63.3822 9.48 62.7955 10.1733 62.7955 11.56V24.072C62.7955 25.4373 63.3822 26.12 64.5555 26.12C65.7288 26.12 66.3155 25.4373 66.3155 24.072V20.648H69.6435V23.816C69.6435 25.5653 69.1955 26.92 68.2995 27.88C67.4248 28.84 66.1448 29.32 64.4595 29.32ZM71.7495 6.6H76.9335C78.6828 6.6 79.9948 7.06933 80.8695 8.008C81.7442 8.94667 82.1815 10.3227 82.1815 12.136V14.344C82.1815 16.1573 81.7442 17.5333 80.8695 18.472C79.9948 19.4107 78.6828 19.88 76.9335 19.88H75.2695V29H71.7495V6.6ZM76.9335 16.68C77.5095 16.68 77.9362 16.52 78.2135 16.2C78.5122 15.88 78.6615 15.336 78.6615 14.568V11.912C78.6615 11.144 78.5122 10.6 78.2135 10.28C77.9362 9.96 77.5095 9.8 76.9335 9.8H75.2695V16.68H76.9335ZM84.0933 6.6H87.6133V29H84.0933V6.6ZM92.9695 6.6H97.7375L101.386 29H97.8655L97.2255 24.552V24.616H93.2255L92.5855 29H89.3215L92.9695 6.6ZM96.8095 21.576L95.2415 10.504H95.1775L93.6415 21.576H96.8095ZM103.093 6.6H108.469C110.219 6.6 111.531 7.06933 112.405 8.008C113.28 8.94667 113.717 10.3227 113.717 12.136V23.464C113.717 25.2773 113.28 26.6533 112.405 27.592C111.531 28.5307 110.219 29 108.469 29H103.093V6.6ZM108.405 25.8C108.981 25.8 109.419 25.6293 109.717 25.288C110.037 24.9467 110.197 24.392 110.197 23.624V11.976C110.197 11.208 110.037 10.6533 109.717 10.312C109.419 9.97067 108.981 9.8 108.405 9.8H106.613V25.8H108.405ZM118.751 6.6H123.519L127.167 29H123.647L123.007 24.552V24.616H119.007L118.367 29H115.103L118.751 6.6ZM122.591 21.576L121.023 10.504H120.959L119.423 21.576H122.591ZM133.357 29.32C131.65 29.32 130.359 28.84 129.485 27.88C128.61 26.8987 128.173 25.5013 128.173 23.688V22.408H131.501V23.944C131.501 25.3947 132.109 26.12 133.325 26.12C133.922 26.12 134.37 25.9493 134.669 25.608C134.989 25.2453 135.149 24.6693 135.149 23.88C135.149 22.9413 134.935 22.12 134.509 21.416C134.082 20.6907 133.293 19.8267 132.141 18.824C130.69 17.544 129.677 16.392 129.101 15.368C128.525 14.3227 128.237 13.1493 128.237 11.848C128.237 10.0773 128.685 8.712 129.581 7.752C130.477 6.77067 131.778 6.28 133.485 6.28C135.17 6.28 136.439 6.77067 137.293 7.752C138.167 8.712 138.605 10.0987 138.605 11.912V12.84H135.277V11.688C135.277 10.92 135.127 10.3653 134.829 10.024C134.53 9.66133 134.093 9.48 133.517 9.48C132.343 9.48 131.757 10.1947 131.757 11.624C131.757 12.4347 131.97 13.192 132.397 13.896C132.845 14.6 133.645 15.4533 134.797 16.456C136.269 17.736 137.282 18.8987 137.837 19.944C138.391 20.9893 138.669 22.216 138.669 23.624C138.669 25.4587 138.21 26.8667 137.293 27.848C136.397 28.8293 135.085 29.32 133.357 29.32ZM140.687 25.608H144.079V29H140.687V25.608ZM151.491 29.32C149.805 29.32 148.515 28.84 147.619 27.88C146.744 26.92 146.307 25.5653 146.307 23.816V11.784C146.307 10.0347 146.744 8.68 147.619 7.72C148.515 6.76 149.805 6.28 151.491 6.28C153.176 6.28 154.456 6.76 155.331 7.72C156.227 8.68 156.675 10.0347 156.675 11.784V14.152H153.347V11.56C153.347 10.1733 152.76 9.48 151.587 9.48C150.413 9.48 149.827 10.1733 149.827 11.56V24.072C149.827 25.4373 150.413 26.12 151.587 26.12C152.76 26.12 153.347 25.4373 153.347 24.072V20.648H156.675V23.816C156.675 25.5653 156.227 26.92 155.331 27.88C154.456 28.84 153.176 29.32 151.491 29.32ZM163.931 29.32C162.203 29.32 160.881 28.8293 159.963 27.848C159.046 26.8667 158.587 25.48 158.587 23.688V11.912C158.587 10.12 159.046 8.73333 159.963 7.752C160.881 6.77067 162.203 6.28 163.931 6.28C165.659 6.28 166.982 6.77067 167.899 7.752C168.817 8.73333 169.275 10.12 169.275 11.912V23.688C169.275 25.48 168.817 26.8667 167.899 27.848C166.982 28.8293 165.659 29.32 163.931 29.32ZM163.931 26.12C165.147 26.12 165.755 25.384 165.755 23.912V11.688C165.755 10.216 165.147 9.48 163.931 9.48C162.715 9.48 162.107 10.216 162.107 11.688V23.912C162.107 25.384 162.715 26.12 163.931 26.12ZM171.656 6.6H176.68L178.92 22.632H178.984L181.224 6.6H186.248V29H182.92V12.04H182.856L180.296 29H177.352L174.792 12.04H174.728V29H171.656V6.6ZM188.875 25.608H192.266V29H188.875V25.608ZM194.906 6.6H200.218C202.031 6.6 203.354 7.02667 204.186 7.88C205.018 8.712 205.434 10.0027 205.434 11.752V12.648C205.434 13.8 205.242 14.7387 204.858 15.464C204.495 16.1893 203.93 16.712 203.162 17.032V17.096C204.911 17.6933 205.786 19.2507 205.786 21.768V23.688C205.786 25.416 205.327 26.7387 204.41 27.656C203.514 28.552 202.191 29 200.442 29H194.906V6.6ZM199.802 15.72C200.506 15.72 201.028 15.5387 201.37 15.176C201.732 14.8133 201.914 14.2053 201.914 13.352V12.104C201.914 11.2933 201.764 10.7067 201.466 10.344C201.188 9.98133 200.74 9.8 200.122 9.8H198.426V15.72H199.802ZM200.442 25.8C201.06 25.8 201.519 25.64 201.818 25.32C202.116 24.9787 202.266 24.4027 202.266 23.592V21.64C202.266 20.616 202.084 19.912 201.722 19.528C201.38 19.1227 200.804 18.92 199.994 18.92H198.426V25.8H200.442ZM207.843 6.6H213.059C214.873 6.6 216.195 7.02667 217.027 7.88C217.859 8.712 218.275 10.0027 218.275 11.752V13.128C218.275 15.4533 217.507 16.9253 215.971 17.544V17.608C216.825 17.864 217.422 18.3867 217.763 19.176C218.126 19.9653 218.307 21.0213 218.307 22.344V26.28C218.307 26.92 218.329 27.4427 218.371 27.848C218.414 28.232 218.521 28.616 218.691 29H215.107C214.979 28.6373 214.894 28.296 214.851 27.976C214.809 27.656 214.787 27.08 214.787 26.248V22.152C214.787 21.128 214.617 20.4133 214.275 20.008C213.955 19.6027 213.39 19.4 212.579 19.4H211.363V29H207.843V6.6ZM212.643 16.2C213.347 16.2 213.87 16.0187 214.211 15.656C214.574 15.2933 214.755 14.6853 214.755 13.832V12.104C214.755 11.2933 214.606 10.7067 214.307 10.344C214.03 9.98133 213.582 9.8 212.963 9.8H211.363V16.2H212.643Z" fill="black" fill-opacity="0.25" shape-rendering="crispEdges"/>
</g>
<path d="M7.888 31.32C6.18133 31.32 4.89067 30.84 4.016 29.88C3.14133 28.8987 2.704 27.5013 2.704 25.688V24.408H6.032V25.944C6.032 27.3947 6.64 28.12 7.856 28.12C8.45333 28.12 8.90133 27.9493 9.2 27.608C9.52 27.2453 9.68 26.6693 9.68 25.88C9.68 24.9413 9.46667 24.12 9.04 23.416C8.61333 22.6907 7.824 21.8267 6.672 20.824C5.22133 19.544 4.208 18.392 3.632 17.368C3.056 16.3227 2.768 15.1493 2.768 13.848C2.768 12.0773 3.216 10.712 4.112 9.752C5.008 8.77067 6.30933 8.28 8.016 8.28C9.70133 8.28 10.9707 8.77067 11.824 9.752C12.6987 10.712 13.136 12.0987 13.136 13.912V14.84H9.808V13.688C9.808 12.92 9.65867 12.3653 9.36 12.024C9.06133 11.6613 8.624 11.48 8.048 11.48C6.87467 11.48 6.288 12.1947 6.288 13.624C6.288 14.4347 6.50133 15.192 6.928 15.896C7.376 16.6 8.176 17.4533 9.328 18.456C10.8 19.736 11.8133 20.8987 12.368 21.944C12.9227 22.9893 13.2 24.216 13.2 25.624C13.2 27.4587 12.7413 28.8667 11.824 29.848C10.928 30.8293 9.616 31.32 7.888 31.32ZM20.3063 31.32C18.5783 31.32 17.2556 30.8293 16.3383 29.848C15.4209 28.8667 14.9622 27.48 14.9622 25.688V13.912C14.9622 12.12 15.4209 10.7333 16.3383 9.752C17.2556 8.77067 18.5783 8.28 20.3063 8.28C22.0343 8.28 23.3569 8.77067 24.2743 9.752C25.1916 10.7333 25.6503 12.12 25.6503 13.912V25.688C25.6503 27.48 25.1916 28.8667 24.2743 29.848C23.3569 30.8293 22.0343 31.32 20.3063 31.32ZM20.3063 28.12C21.5223 28.12 22.1302 27.384 22.1302 25.912V13.688C22.1302 12.216 21.5223 11.48 20.3063 11.48C19.0903 11.48 18.4823 12.216 18.4823 13.688V25.912C18.4823 27.384 19.0903 28.12 20.3063 28.12ZM28.0308 8.6H32.4468L35.8708 22.008H35.9348V8.6H39.0708V31H35.4548L31.2308 14.648H31.1668V31H28.0308V8.6ZM41.687 8.6H46.103L49.527 22.008H49.591V8.6H52.727V31H49.111L44.887 14.648H44.823V31H41.687V8.6ZM55.3433 8.6H58.8633V31H55.3433V8.6ZM66.4595 31.32C64.7742 31.32 63.4835 30.84 62.5875 29.88C61.7128 28.92 61.2755 27.5653 61.2755 25.816V13.784C61.2755 12.0347 61.7128 10.68 62.5875 9.72C63.4835 8.76 64.7742 8.28 66.4595 8.28C68.1448 8.28 69.4248 8.76 70.2995 9.72C71.1955 10.68 71.6435 12.0347 71.6435 13.784V16.152H68.3155V13.56C68.3155 12.1733 67.7288 11.48 66.5555 11.48C65.3822 11.48 64.7955 12.1733 64.7955 13.56V26.072C64.7955 27.4373 65.3822 28.12 66.5555 28.12C67.7288 28.12 68.3155 27.4373 68.3155 26.072V22.648H71.6435V25.816C71.6435 27.5653 71.1955 28.92 70.2995 29.88C69.4248 30.84 68.1448 31.32 66.4595 31.32ZM73.7495 8.6H78.9335C80.6828 8.6 81.9948 9.06933 82.8695 10.008C83.7442 10.9467 84.1815 12.3227 84.1815 14.136V16.344C84.1815 18.1573 83.7442 19.5333 82.8695 20.472C81.9948 21.4107 80.6828 21.88 78.9335 21.88H77.2695V31H73.7495V8.6ZM78.9335 18.68C79.5095 18.68 79.9362 18.52 80.2135 18.2C80.5122 17.88 80.6615 17.336 80.6615 16.568V13.912C80.6615 13.144 80.5122 12.6 80.2135 12.28C79.9362 11.96 79.5095 11.8 78.9335 11.8H77.2695V18.68H78.9335ZM86.0933 8.6H89.6133V31H86.0933V8.6ZM94.9695 8.6H99.7375L103.386 31H99.8655L99.2255 26.552V26.616H95.2255L94.5855 31H91.3215L94.9695 8.6ZM98.8095 23.576L97.2415 12.504H97.1775L95.6415 23.576H98.8095ZM105.093 8.6H110.469C112.219 8.6 113.531 9.06933 114.405 10.008C115.28 10.9467 115.717 12.3227 115.717 14.136V25.464C115.717 27.2773 115.28 28.6533 114.405 29.592C113.531 30.5307 112.219 31 110.469 31H105.093V8.6ZM110.405 27.8C110.981 27.8 111.419 27.6293 111.717 27.288C112.037 26.9467 112.197 26.392 112.197 25.624V13.976C112.197 13.208 112.037 12.6533 111.717 12.312C111.419 11.9707 110.981 11.8 110.405 11.8H108.613V27.8H110.405ZM120.751 8.6H125.519L129.167 31H125.647L125.007 26.552V26.616H121.007L120.367 31H117.103L120.751 8.6ZM124.591 23.576L123.023 12.504H122.959L121.423 23.576H124.591ZM135.357 31.32C133.65 31.32 132.359 30.84 131.485 29.88C130.61 28.8987 130.173 27.5013 130.173 25.688V24.408H133.501V25.944C133.501 27.3947 134.109 28.12 135.325 28.12C135.922 28.12 136.37 27.9493 136.669 27.608C136.989 27.2453 137.149 26.6693 137.149 25.88C137.149 24.9413 136.935 24.12 136.509 23.416C136.082 22.6907 135.293 21.8267 134.141 20.824C132.69 19.544 131.677 18.392 131.101 17.368C130.525 16.3227 130.237 15.1493 130.237 13.848C130.237 12.0773 130.685 10.712 131.581 9.752C132.477 8.77067 133.778 8.28 135.485 8.28C137.17 8.28 138.439 8.77067 139.293 9.752C140.167 10.712 140.605 12.0987 140.605 13.912V14.84H137.277V13.688C137.277 12.92 137.127 12.3653 136.829 12.024C136.53 11.6613 136.093 11.48 135.517 11.48C134.343 11.48 133.757 12.1947 133.757 13.624C133.757 14.4347 133.97 15.192 134.397 15.896C134.845 16.6 135.645 17.4533 136.797 18.456C138.269 19.736 139.282 20.8987 139.837 21.944C140.391 22.9893 140.669 24.216 140.669 25.624C140.669 27.4587 140.21 28.8667 139.293 29.848C138.397 30.8293 137.085 31.32 135.357 31.32ZM142.687 27.608H146.079V31H142.687V27.608ZM153.491 31.32C151.805 31.32 150.515 30.84 149.619 29.88C148.744 28.92 148.307 27.5653 148.307 25.816V13.784C148.307 12.0347 148.744 10.68 149.619 9.72C150.515 8.76 151.805 8.28 153.491 8.28C155.176 8.28 156.456 8.76 157.331 9.72C158.227 10.68 158.675 12.0347 158.675 13.784V16.152H155.347V13.56C155.347 12.1733 154.76 11.48 153.587 11.48C152.413 11.48 151.827 12.1733 151.827 13.56V26.072C151.827 27.4373 152.413 28.12 153.587 28.12C154.76 28.12 155.347 27.4373 155.347 26.072V22.648H158.675V25.816C158.675 27.5653 158.227 28.92 157.331 29.88C156.456 30.84 155.176 31.32 153.491 31.32ZM165.931 31.32C164.203 31.32 162.881 30.8293 161.963 29.848C161.046 28.8667 160.587 27.48 160.587 25.688V13.912C160.587 12.12 161.046 10.7333 161.963 9.752C162.881 8.77067 164.203 8.28 165.931 8.28C167.659 8.28 168.982 8.77067 169.899 9.752C170.817 10.7333 171.275 12.12 171.275 13.912V25.688C171.275 27.48 170.817 28.8667 169.899 29.848C168.982 30.8293 167.659 31.32 165.931 31.32ZM165.931 28.12C167.147 28.12 167.755 27.384 167.755 25.912V13.688C167.755 12.216 167.147 11.48 165.931 11.48C164.715 11.48 164.107 12.216 164.107 13.688V25.912C164.107 27.384 164.715 28.12 165.931 28.12ZM173.656 8.6H178.68L180.92 24.632H180.984L183.224 8.6H188.248V31H184.92V14.04H184.856L182.296 31H179.352L176.792 14.04H176.728V31H173.656V8.6ZM190.875 27.608H194.266V31H190.875V27.608ZM196.906 8.6H202.218C204.031 8.6 205.354 9.02667 206.186 9.88C207.018 10.712 207.434 12.0027 207.434 13.752V14.648C207.434 15.8 207.242 16.7387 206.858 17.464C206.495 18.1893 205.93 18.712 205.162 19.032V19.096C206.911 19.6933 207.786 21.2507 207.786 23.768V25.688C207.786 27.416 207.327 28.7387 206.41 29.656C205.514 30.552 204.191 31 202.442 31H196.906V8.6ZM201.802 17.72C202.506 17.72 203.028 17.5387 203.37 17.176C203.732 16.8133 203.914 16.2053 203.914 15.352V14.104C203.914 13.2933 203.764 12.7067 203.466 12.344C203.188 11.9813 202.74 11.8 202.122 11.8H200.426V17.72H201.802ZM202.442 27.8C203.06 27.8 203.519 27.64 203.818 27.32C204.116 26.9787 204.266 26.4027 204.266 25.592V23.64C204.266 22.616 204.084 21.912 203.722 21.528C203.38 21.1227 202.804 20.92 201.994 20.92H200.426V27.8H202.442ZM209.843 8.6H215.059C216.873 8.6 218.195 9.02667 219.027 9.88C219.859 10.712 220.275 12.0027 220.275 13.752V15.128C220.275 17.4533 219.507 18.9253 217.971 19.544V19.608C218.825 19.864 219.422 20.3867 219.763 21.176C220.126 21.9653 220.307 23.0213 220.307 24.344V28.28C220.307 28.92 220.329 29.4427 220.371 29.848C220.414 30.232 220.521 30.616 220.691 31H217.107C216.979 30.6373 216.894 30.296 216.851 29.976C216.809 29.656 216.787 29.08 216.787 28.248V24.152C216.787 23.128 216.617 22.4133 216.275 22.008C215.955 21.6027 215.39 21.4 214.579 21.4H213.363V31H209.843V8.6ZM214.643 18.2C215.347 18.2 215.87 18.0187 216.211 17.656C216.574 17.2933 216.755 16.6853 216.755 15.832V14.104C216.755 13.2933 216.606 12.7067 216.307 12.344C216.03 11.9813 215.582 11.8 214.963 11.8H213.363V18.2H214.643Z" fill="#2F3136" fill-opacity="0.3"/>
</g>
<defs>
<filter id="filter0_d_2_2" x="-0.296005" y="5.28" width="219.987" height="25.04" filterUnits="userSpaceOnUse" color-interpolation-filters="sRGB">
<feFlood flood-opacity="0" result="BackgroundImageFix"/>
<feColorMatrix in="SourceAlpha" type="matrix" values="0 0 0 0 0 0 0 0 0 0 0 0 0 0 0 0 0 0 127 0" result="hardAlpha"/>
<feOffset/>
<feGaussianBlur stdDeviation="0.5"/>
<feComposite in2="hardAlpha" operator="out"/>
<feColorMatrix type="matrix" values="0 0 0 0 1 0 0 0 0 1 0 0 0 0 1 0 0 0 0.1 0"/>
<feBlend mode="normal" in2="BackgroundImageFix" result="effect1_dropShadow_2_2"/>
<feBlend mode="normal" in="SourceGraphic" in2="effect1_dropShadow_2_2" result="shape"/>
</filter>
<clipPath id="clip0_2_2">
<rect width="471" height="343" fill="white"/>
</clipPath>
</defs>
</svg>
